<mxfile host="app.diagrams.net" modified="2024-04-01T08:56:45.367Z" agent="Mozilla/5.0 (Windows NT 10.0; Win64; x64) AppleWebKit/537.36 (KHTML, like Gecko) Chrome/123.0.0.0 Safari/537.36 Edg/123.0.0.0" etag="GhA7EIGoD04w-kB_b_1y" version="24.2.0" type="github">
  <diagram name="Page-1" id="c4acf3e9-155e-7222-9cf6-157b1a14988f">
    <mxGraphModel dx="946" dy="673" grid="1" gridSize="10" guides="1" tooltips="1" connect="1" arrows="1" fold="1" page="1" pageScale="1" pageWidth="850" pageHeight="1100" background="none" math="0" shadow="0">
      <root>
        <mxCell id="0" />
        <mxCell id="1" parent="0" />
        <mxCell id="XCSMlLIBWtw01cx1RG2m-1" value="用户" style="shape=umlActor;verticalLabelPosition=bottom;verticalAlign=top;html=1;outlineConnect=0;strokeWidth=2;fontSize=20;" vertex="1" parent="1">
          <mxGeometry x="410" y="320" width="30" height="60" as="geometry" />
        </mxCell>
        <mxCell id="XCSMlLIBWtw01cx1RG2m-2" value="查看热门文献" style="ellipse;whiteSpace=wrap;html=1;strokeWidth=2;fontSize=20;" vertex="1" parent="1">
          <mxGeometry x="330" y="180" width="190" height="80" as="geometry" />
        </mxCell>
        <mxCell id="XCSMlLIBWtw01cx1RG2m-3" value="文献评论区" style="ellipse;whiteSpace=wrap;html=1;strokeWidth=2;fontSize=20;" vertex="1" parent="1">
          <mxGeometry x="550" y="270" width="140" height="80" as="geometry" />
        </mxCell>
        <mxCell id="XCSMlLIBWtw01cx1RG2m-4" value="查看论文检索结果" style="ellipse;whiteSpace=wrap;html=1;strokeWidth=2;fontSize=20;" vertex="1" parent="1">
          <mxGeometry x="140" y="280" width="200" height="80" as="geometry" />
        </mxCell>
        <mxCell id="XCSMlLIBWtw01cx1RG2m-5" value="论文阅读器" style="ellipse;whiteSpace=wrap;html=1;strokeWidth=2;fontSize=20;" vertex="1" parent="1">
          <mxGeometry x="190" y="440" width="150" height="60" as="geometry" />
        </mxCell>
        <mxCell id="XCSMlLIBWtw01cx1RG2m-6" value="在线查看报告" style="ellipse;whiteSpace=wrap;html=1;strokeWidth=2;fontSize=20;" vertex="1" parent="1">
          <mxGeometry x="490" y="440" width="160" height="80" as="geometry" />
        </mxCell>
        <mxCell id="XCSMlLIBWtw01cx1RG2m-7" value="" style="endArrow=none;dashed=1;html=1;rounded=0;entryX=0.404;entryY=0.033;entryDx=0;entryDy=0;entryPerimeter=0;fontSize=20;strokeWidth=2;" edge="1" parent="1" source="XCSMlLIBWtw01cx1RG2m-1" target="XCSMlLIBWtw01cx1RG2m-6">
          <mxGeometry width="50" height="50" relative="1" as="geometry">
            <mxPoint x="400" y="370" as="sourcePoint" />
            <mxPoint x="450" y="320" as="targetPoint" />
          </mxGeometry>
        </mxCell>
        <mxCell id="XCSMlLIBWtw01cx1RG2m-9" value="" style="endArrow=none;dashed=1;html=1;rounded=0;entryX=0.5;entryY=1;entryDx=0;entryDy=0;fontSize=20;strokeWidth=2;" edge="1" parent="1" source="XCSMlLIBWtw01cx1RG2m-1" target="XCSMlLIBWtw01cx1RG2m-2">
          <mxGeometry width="50" height="50" relative="1" as="geometry">
            <mxPoint x="510" y="390" as="sourcePoint" />
            <mxPoint x="560" y="340" as="targetPoint" />
          </mxGeometry>
        </mxCell>
        <mxCell id="XCSMlLIBWtw01cx1RG2m-10" value="" style="endArrow=none;dashed=1;html=1;rounded=0;entryX=0;entryY=1;entryDx=0;entryDy=0;entryPerimeter=0;exitX=0.982;exitY=0.189;exitDx=0;exitDy=0;fontSize=20;strokeWidth=2;exitPerimeter=0;" edge="1" parent="1" source="XCSMlLIBWtw01cx1RG2m-5" target="XCSMlLIBWtw01cx1RG2m-1">
          <mxGeometry width="50" height="50" relative="1" as="geometry">
            <mxPoint x="200" y="500" as="sourcePoint" />
            <mxPoint x="250" y="450" as="targetPoint" />
          </mxGeometry>
        </mxCell>
        <mxCell id="XCSMlLIBWtw01cx1RG2m-11" value="" style="endArrow=none;dashed=1;html=1;rounded=0;exitX=0;exitY=0.5;exitDx=0;exitDy=0;entryX=1;entryY=0.3333333333333333;entryDx=0;entryDy=0;entryPerimeter=0;fontSize=20;strokeWidth=2;" edge="1" parent="1" source="XCSMlLIBWtw01cx1RG2m-3" target="XCSMlLIBWtw01cx1RG2m-1">
          <mxGeometry width="50" height="50" relative="1" as="geometry">
            <mxPoint x="400" y="370" as="sourcePoint" />
            <mxPoint x="450" y="320" as="targetPoint" />
          </mxGeometry>
        </mxCell>
        <mxCell id="XCSMlLIBWtw01cx1RG2m-12" value="" style="endArrow=none;dashed=1;html=1;rounded=0;exitX=1.01;exitY=0.617;exitDx=0;exitDy=0;exitPerimeter=0;fontSize=20;strokeWidth=2;" edge="1" parent="1" source="XCSMlLIBWtw01cx1RG2m-4" target="XCSMlLIBWtw01cx1RG2m-1">
          <mxGeometry width="50" height="50" relative="1" as="geometry">
            <mxPoint x="330" y="470" as="sourcePoint" />
            <mxPoint x="380" y="420" as="targetPoint" />
          </mxGeometry>
        </mxCell>
      </root>
    </mxGraphModel>
  </diagram>
</mxfile>
